<svg width="48" height="48" viewBox="0 0 48 48" fill="none" xmlns="http://www.w3.org/2000/svg">
<path fill-rule="evenodd" clip-rule="evenodd" d="M0.666656 0.996094L47.3333 0.996096L47.3333 47.6628L0.666654 47.6628L0.666656 0.996094ZM20.5493 9.04774L16.1948 9.04774L6.91079 9.04774L6.91079 16.6886L6.91079 24.3294L6.91079 39.6111L16.1948 39.6111L20.5493 39.6111L20.5493 31.9703L20.5493 24.3294L20.5493 22.3045C24.526 22.4765 27.6972 25.7549 27.6972 29.7739L27.6972 39.6111L40.8427 39.6111L40.8427 26.9585C40.8427 24.236 38.6356 22.029 35.9131 22.029L27.6972 22.029L20.5493 22.029L20.5493 21.5011L29.4897 21.5011C32.4352 21.5011 34.823 19.1133 34.823 16.1678L34.823 9.12372L25.4706 9.12372L25.4706 16.3427C25.4706 19.0614 23.2675 21.2655 20.5493 21.2673L20.5493 9.04774Z" fill="#DF582E"/>
</svg>
