<svg width="330" height="48" viewBox="0 0 330 48" fill="none" xmlns="http://www.w3.org/2000/svg">
<path fill-rule="evenodd" clip-rule="evenodd" d="M0.666656 0.996094L47.3333 0.996096L47.3333 47.6628L0.666654 47.6628L0.666656 0.996094ZM20.5493 9.04774L16.1948 9.04774L6.91079 9.04774L6.91079 16.6886L6.91079 24.3294L6.91079 39.6111L16.1948 39.6111L20.5493 39.6111L20.5493 31.9703L20.5493 24.3294L20.5493 22.3045C24.526 22.4765 27.6972 25.7549 27.6972 29.7739L27.6972 39.6111L40.8427 39.6111L40.8427 26.9585C40.8427 24.236 38.6356 22.029 35.9131 22.029L27.6972 22.029L20.5493 22.029L20.5493 21.5011L29.4897 21.5011C32.4352 21.5011 34.823 19.1133 34.823 16.1678L34.823 9.12372L25.4706 9.12372L25.4706 16.3427C25.4706 19.0614 23.2675 21.2655 20.5493 21.2673L20.5493 9.04774Z" fill="#DF582E"/>
<path d="M66.544 37.6627V28.7881L72.2187 22.8574L82.9707 37.6627H87.408L74.6934 20.2547L86.5974 7.79605H81.9467L66.544 24.1374V7.79605H62.96V37.6627H66.544ZM90.425 11.2521C91.9184 11.2521 93.0277 10.1001 93.0277 8.60672C93.0277 7.11338 91.9184 6.00405 90.425 6.00405C88.9317 6.00405 87.7797 7.11338 87.7797 8.60672C87.7797 10.1001 88.9317 11.2521 90.425 11.2521ZM92.1744 37.6627V15.0494H88.633V37.6627H92.1744ZM105.39 38.1321C110.553 38.1321 114.222 35.1881 115.246 30.5374H111.79C110.852 33.4814 108.548 35.0601 105.39 35.0601C100.825 35.0601 98.009 31.7747 97.7957 26.9534H115.332V25.9721C115.204 18.7187 111.193 14.5374 104.964 14.5374C99.2464 14.5374 94.2544 18.7187 94.2544 26.4414C94.2544 33.2254 98.6917 38.1321 105.39 38.1321ZM98.009 24.0094C98.7344 19.9561 101.38 17.6094 104.964 17.6094C108.59 17.6094 110.98 20.0414 111.62 24.0094H98.009ZM121.099 37.6627V5.66272H117.558V37.6627H121.099ZM145.428 38.1321C153.236 38.1321 158.186 33.9507 159.508 26.1854H155.796C154.644 31.8174 151.018 34.8467 145.428 34.8467C138.73 34.8467 134.591 30.2814 134.591 22.6441C134.591 15.2627 138.73 10.6121 145.428 10.6121C150.847 10.6121 154.687 13.8121 155.796 19.2734H159.508C158.228 11.7641 153.023 7.32672 145.428 7.32672C136.255 7.32672 130.836 13.7694 130.836 22.6441C130.836 31.6894 136.255 38.1321 145.428 38.1321ZM170.359 38.1321C173.474 38.1321 176.205 36.8094 177.698 34.2494L177.997 37.6627H180.813V15.0494H177.271V28.7881C177.229 32.2014 174.925 35.0174 170.701 35.0174C167.501 35.0174 165.239 33.2681 165.239 30.0254V15.0494H161.698V30.1534C161.698 34.7614 164.855 38.1321 170.359 38.1321ZM187.606 37.6627V23.9241C187.649 20.4681 190.123 17.6521 194.347 17.6521C197.377 17.6521 199.254 19.6147 199.254 22.6441V37.6627H202.753V23.9241C202.795 20.4681 205.27 17.6521 209.494 17.6521C212.523 17.6521 214.401 19.6147 214.401 22.6441V37.6627H217.942V22.5161C217.942 17.9081 214.87 14.5374 210.091 14.5374C206.635 14.5374 203.521 16.3721 202.07 19.0174C200.918 16.2867 198.358 14.5374 194.945 14.5374C191.702 14.5374 188.758 16.1161 187.222 18.5481L186.881 15.0494H184.065V37.6627H187.606ZM224.463 37.6627V23.9241C224.505 20.4681 226.98 17.6521 231.204 17.6521C234.233 17.6521 236.111 19.6147 236.111 22.6441V37.6627H239.609V23.9241C239.652 20.4681 242.127 17.6521 246.351 17.6521C249.38 17.6521 251.257 19.6147 251.257 22.6441V37.6627H254.799V22.5161C254.799 17.9081 251.727 14.5374 246.948 14.5374C243.492 14.5374 240.377 16.3721 238.927 19.0174C237.775 16.2867 235.215 14.5374 231.801 14.5374C228.559 14.5374 225.615 16.1161 224.079 18.5481L223.737 15.0494H220.921V37.6627H224.463ZM259.57 11.2521C261.063 11.2521 262.173 10.1001 262.173 8.60672C262.173 7.11338 261.063 6.00405 259.57 6.00405C258.077 6.00405 256.925 7.11338 256.925 8.60672C256.925 10.1001 258.077 11.2521 259.57 11.2521ZM261.319 37.6627V15.0494H257.778V37.6627H261.319ZM268.093 37.6627V23.9241C268.135 20.4681 270.61 17.6521 274.663 17.6521C278.077 17.6521 280.125 19.6574 280.125 22.8147V37.6627H283.666V22.6867C283.666 17.6947 280.423 14.5374 275.559 14.5374C272.189 14.5374 269.245 16.1161 267.709 18.5054L267.367 15.0494H264.551V37.6627H268.093ZM296.514 46.7081C303.255 46.7081 307.095 42.7827 307.095 37.0654V15.0494H304.322L303.938 18.9747C302.402 16.2441 299.458 14.5374 295.831 14.5374C289.858 14.5374 285.506 19.2307 285.506 26.0147C285.506 32.6707 289.815 37.2787 295.831 37.2787C299.287 37.2787 302.018 35.7427 303.597 33.3961V37.0654C303.597 40.9481 301.165 43.7214 296.514 43.7214C292.546 43.7214 289.815 41.6734 289.815 38.9854H286.274C286.274 43.7641 290.413 46.7081 296.514 46.7081ZM296.343 34.2067C292.119 34.2067 289.175 30.8361 289.175 25.9721C289.175 21.0227 292.119 17.6094 296.343 17.6094C300.61 17.6094 303.597 21.0227 303.597 25.8867C303.597 30.7934 300.61 34.2067 296.343 34.2067ZM318.796 38.1321C324.3 38.1321 327.201 35.7427 327.201 31.7747C327.201 28.0201 324.727 26.6121 320.588 25.2467L317.516 24.2227C315.639 23.5827 313.164 23.1134 313.164 20.7667C313.164 18.8041 314.785 17.5667 317.559 17.5667C320.631 17.5667 322.849 19.1027 323.233 22.2601H326.689C326.135 17.2254 322.679 14.5374 317.687 14.5374C312.737 14.5374 309.751 17.0121 309.751 20.8521C309.751 24.9481 313.079 25.9721 316.407 27.0814L319.692 28.1907C322.039 29.0014 323.703 29.4707 323.703 31.6041C323.703 33.8654 322.167 35.1027 318.967 35.1027C315.553 35.1027 312.865 33.4814 312.609 30.5374H309.153C309.452 35.3161 313.42 38.1321 318.796 38.1321Z" fill="#D6D4CA"/>
</svg>
